<svg xmlns="http://www.w3.org/2000/svg" width="96" height="96" viewBox="0 0 96 96">

    <defs>
      <linearGradient id="bg" x1="0" y1="0" x2="1" y2="1">
        <stop offset="0" stop-color="#1F2937"/>
        <stop offset="1" stop-color="#0B1220"/>
      </linearGradient>
      <filter id="glow" x="-50%" y="-50%" width="200%" height="200%">
        <feGaussianBlur stdDeviation="1.4" result="b"/>
        <feMerge><feMergeNode in="b"/><feMergeNode in="SourceGraphic"/></feMerge>
      </filter>
    </defs>

<g filter="url(#glow)">
<rect x="25" y="25" width="46" height="46" rx="8" fill="none" stroke="#22D3EE" stroke-width="5" opacity="1"/>
<line x1="16" y1="33" x2="25" y2="33" stroke="#0F172A" stroke-width="3" stroke-linecap="round"/>
<line x1="71" y1="33" x2="80" y2="33" stroke="#0F172A" stroke-width="3" stroke-linecap="round"/>
<line x1="33" y1="16" x2="33" y2="25" stroke="#0F172A" stroke-width="3" stroke-linecap="round"/>
<line x1="33" y1="71" x2="33" y2="80" stroke="#0F172A" stroke-width="3" stroke-linecap="round"/>
<line x1="16" y1="48" x2="25" y2="48" stroke="#0F172A" stroke-width="3" stroke-linecap="round"/>
<line x1="71" y1="48" x2="80" y2="48" stroke="#0F172A" stroke-width="3" stroke-linecap="round"/>
<line x1="48" y1="16" x2="48" y2="25" stroke="#0F172A" stroke-width="3" stroke-linecap="round"/>
<line x1="48" y1="71" x2="48" y2="80" stroke="#0F172A" stroke-width="3" stroke-linecap="round"/>
<line x1="16" y1="63" x2="25" y2="63" stroke="#0F172A" stroke-width="3" stroke-linecap="round"/>
<line x1="71" y1="63" x2="80" y2="63" stroke="#0F172A" stroke-width="3" stroke-linecap="round"/>
<line x1="63" y1="16" x2="63" y2="25" stroke="#0F172A" stroke-width="3" stroke-linecap="round"/>
<line x1="63" y1="71" x2="63" y2="80" stroke="#0F172A" stroke-width="3" stroke-linecap="round"/>
<circle cx="48" cy="48" r="8" fill="none" stroke="#0F172A" stroke-width="4" opacity="1"/>
<path d="M28 63 C22 36 39 20 56 30 C76 42 72 73 48 73 C38 73 31 70 28 63Z" fill="#22D3EE" opacity=".28" stroke="#22D3EE" stroke-width="4"/>
</g>
</svg>