<svg xmlns="http://www.w3.org/2000/svg" width="96" height="96" viewBox="0 0 96 96">

    <defs>
      <linearGradient id="bg" x1="0" y1="0" x2="1" y2="1">
        <stop offset="0" stop-color="#1F2937"/>
        <stop offset="1" stop-color="#0B1220"/>
      </linearGradient>
      <filter id="glow" x="-50%" y="-50%" width="200%" height="200%">
        <feGaussianBlur stdDeviation="1.4" result="b"/>
        <feMerge><feMergeNode in="b"/><feMergeNode in="SourceGraphic"/></feMerge>
      </filter>
    </defs>

<g filter="url(#glow)">
<rect x="20" y="20" width="56" height="56" rx="4" fill="none" stroke="#F97316" stroke-width="4" opacity="1"/>
<line x1="20" y1="36" x2="20" y2="20" stroke="#0F172A" stroke-width="4" stroke-linecap="round"/>
<line x1="20" y1="20" x2="36" y2="20" stroke="#0F172A" stroke-width="4" stroke-linecap="round"/>
<line x1="60" y1="20" x2="76" y2="20" stroke="#0F172A" stroke-width="4" stroke-linecap="round"/>
<line x1="76" y1="20" x2="76" y2="36" stroke="#0F172A" stroke-width="4" stroke-linecap="round"/>
<line x1="76" y1="60" x2="76" y2="76" stroke="#0F172A" stroke-width="4" stroke-linecap="round"/>
<line x1="76" y1="76" x2="60" y2="76" stroke="#0F172A" stroke-width="4" stroke-linecap="round"/>
<line x1="36" y1="76" x2="20" y2="76" stroke="#0F172A" stroke-width="4" stroke-linecap="round"/>
<line x1="20" y1="76" x2="20" y2="60" stroke="#0F172A" stroke-width="4" stroke-linecap="round"/>
<circle cx="48" cy="48" r="8" fill="none" stroke="#F97316" stroke-width="4" opacity="1"/>
<line x1="48" y1="21" x2="48" y2="35" stroke="#0F172A" stroke-width="3" stroke-linecap="round"/>
<line x1="48" y1="61" x2="48" y2="75" stroke="#0F172A" stroke-width="3" stroke-linecap="round"/>
<line x1="21" y1="48" x2="35" y2="48" stroke="#0F172A" stroke-width="3" stroke-linecap="round"/>
<line x1="61" y1="48" x2="75" y2="48" stroke="#0F172A" stroke-width="3" stroke-linecap="round"/>
</g>
</svg>