<svg xmlns="http://www.w3.org/2000/svg" width="96" height="96" viewBox="0 0 96 96">

    <defs>
      <linearGradient id="bg" x1="0" y1="0" x2="1" y2="1">
        <stop offset="0" stop-color="#1F2937"/>
        <stop offset="1" stop-color="#0B1220"/>
      </linearGradient>
      <filter id="glow" x="-50%" y="-50%" width="200%" height="200%">
        <feGaussianBlur stdDeviation="1.4" result="b"/>
        <feMerge><feMergeNode in="b"/><feMergeNode in="SourceGraphic"/></feMerge>
      </filter>
    </defs>

<g filter="url(#glow)">
<rect x="20" y="20" width="56" height="56" rx="3" fill="none" stroke="#0F172A" stroke-width="5" opacity="1"/>
<rect x="24" y="24" width="12" height="12" fill="#F97316" opacity=".85" stroke="none"/>
<rect x="24" y="36" width="12" height="12" fill="none" opacity=".85" stroke="none"/>
<rect x="24" y="48" width="12" height="12" fill="#F97316" opacity=".85" stroke="none"/>
<rect x="24" y="60" width="12" height="12" fill="none" opacity=".85" stroke="none"/>
<rect x="36" y="24" width="12" height="12" fill="none" opacity=".85" stroke="none"/>
<rect x="36" y="36" width="12" height="12" fill="#F97316" opacity=".85" stroke="none"/>
<rect x="36" y="48" width="12" height="12" fill="none" opacity=".85" stroke="none"/>
<rect x="36" y="60" width="12" height="12" fill="#F97316" opacity=".85" stroke="none"/>
<rect x="48" y="24" width="12" height="12" fill="#F97316" opacity=".85" stroke="none"/>
<rect x="48" y="36" width="12" height="12" fill="none" opacity=".85" stroke="none"/>
<rect x="48" y="48" width="12" height="12" fill="#F97316" opacity=".85" stroke="none"/>
<rect x="48" y="60" width="12" height="12" fill="none" opacity=".85" stroke="none"/>
<rect x="60" y="24" width="12" height="12" fill="none" opacity=".85" stroke="none"/>
<rect x="60" y="36" width="12" height="12" fill="#F97316" opacity=".85" stroke="none"/>
<rect x="60" y="48" width="12" height="12" fill="none" opacity=".85" stroke="none"/>
<rect x="60" y="60" width="12" height="12" fill="#F97316" opacity=".85" stroke="none"/>
</g>
</svg>