<svg xmlns="http://www.w3.org/2000/svg" width="96" height="96" viewBox="0 0 96 96">

    <defs>
      <linearGradient id="bg" x1="0" y1="0" x2="1" y2="1">
        <stop offset="0" stop-color="#1F2937"/>
        <stop offset="1" stop-color="#0B1220"/>
      </linearGradient>
      <filter id="glow" x="-50%" y="-50%" width="200%" height="200%">
        <feGaussianBlur stdDeviation="1.4" result="b"/>
        <feMerge><feMergeNode in="b"/><feMergeNode in="SourceGraphic"/></feMerge>
      </filter>
    </defs>

<g filter="url(#glow)">
<rect x="22" y="26" width="52" height="44" rx="8" fill="none" stroke="#0F172A" stroke-width="5" opacity="1"/>
<polyline points="25,34 37,27 49,34 61,27 73,34" fill="none" stroke="#FB7185" stroke-width="3" stroke-linecap="round" stroke-linejoin="round" opacity="1"/>
<polyline points="25,44 37,37 49,44 61,37 73,44" fill="none" stroke="#FB7185" stroke-width="3" stroke-linecap="round" stroke-linejoin="round" opacity="1"/>
<polyline points="25,54 37,47 49,54 61,47 73,54" fill="none" stroke="#FB7185" stroke-width="3" stroke-linecap="round" stroke-linejoin="round" opacity="1"/>
<polyline points="25,64 37,57 49,64 61,57 73,64" fill="none" stroke="#FB7185" stroke-width="3" stroke-linecap="round" stroke-linejoin="round" opacity="1"/>
<line x1="63" y1="25" x2="77" y2="25" stroke="#FB7185" stroke-width="4" stroke-linecap="round"/>
<line x1="70" y1="18" x2="70" y2="32" stroke="#FB7185" stroke-width="4" stroke-linecap="round"/>
</g>
</svg>