<svg xmlns="http://www.w3.org/2000/svg" width="96" height="96" viewBox="0 0 96 96">

    <defs>
      <linearGradient id="bg" x1="0" y1="0" x2="1" y2="1">
        <stop offset="0" stop-color="#1F2937"/>
        <stop offset="1" stop-color="#0B1220"/>
      </linearGradient>
      <filter id="glow" x="-50%" y="-50%" width="200%" height="200%">
        <feGaussianBlur stdDeviation="1.4" result="b"/>
        <feMerge><feMergeNode in="b"/><feMergeNode in="SourceGraphic"/></feMerge>
      </filter>
    </defs>
<rect x="4" y="4" width="88" height="88" rx="20" fill="url(#bg)" stroke="#FFD166" stroke-width="2" opacity="0.98"/><rect x="10" y="10" width="76" height="76" rx="16" fill="none" stroke="#FFD166" stroke-width="1" opacity=".23"/>
<g filter="url(#glow)">
<rect x="20" y="20" width="56" height="56" rx="4" fill="none" stroke="#FFD166" stroke-width="4" opacity="1"/>
<line x1="20" y1="36" x2="20" y2="20" stroke="#EAF6FF" stroke-width="4" stroke-linecap="round"/>
<line x1="20" y1="20" x2="36" y2="20" stroke="#EAF6FF" stroke-width="4" stroke-linecap="round"/>
<line x1="60" y1="20" x2="76" y2="20" stroke="#EAF6FF" stroke-width="4" stroke-linecap="round"/>
<line x1="76" y1="20" x2="76" y2="36" stroke="#EAF6FF" stroke-width="4" stroke-linecap="round"/>
<line x1="76" y1="60" x2="76" y2="76" stroke="#EAF6FF" stroke-width="4" stroke-linecap="round"/>
<line x1="76" y1="76" x2="60" y2="76" stroke="#EAF6FF" stroke-width="4" stroke-linecap="round"/>
<line x1="36" y1="76" x2="20" y2="76" stroke="#EAF6FF" stroke-width="4" stroke-linecap="round"/>
<line x1="20" y1="76" x2="20" y2="60" stroke="#EAF6FF" stroke-width="4" stroke-linecap="round"/>
<line x1="62" y1="25" x2="78" y2="25" stroke="#FB7185" stroke-width="4" stroke-linecap="round"/>
<line x1="70" y1="17" x2="70" y2="33" stroke="#FB7185" stroke-width="4" stroke-linecap="round"/>
</g>
</svg>