<svg xmlns="http://www.w3.org/2000/svg" width="96" height="96" viewBox="0 0 96 96">

    <defs>
      <linearGradient id="bg" x1="0" y1="0" x2="1" y2="1">
        <stop offset="0" stop-color="#1F2937"/>
        <stop offset="1" stop-color="#0B1220"/>
      </linearGradient>
      <filter id="glow" x="-50%" y="-50%" width="200%" height="200%">
        <feGaussianBlur stdDeviation="1.2" result="b"/>
        <feMerge><feMergeNode in="b"/><feMergeNode in="SourceGraphic"/></feMerge>
      </filter>
    </defs>

<rect x="4" y="4" width="88" height="88" rx="20" fill="url(#bg)" stroke="#22D3EE" stroke-width="2" opacity="0.98"/><rect x="10" y="10" width="76" height="76" rx="16" fill="none" stroke="#22D3EE" stroke-width="1" opacity=".23"/><g filter="url(#glow)">

<rect x="24" y="24" width="48" height="48" rx="9" fill="none" stroke="#22D3EE" stroke-width="5"/>
<circle cx="36" cy="39" r="4" fill="#E5E7EB"/><circle cx="58" cy="34" r="4" fill="#E5E7EB"/><circle cx="48" cy="54" r="4" fill="#E5E7EB"/><circle cx="62" cy="62" r="4" fill="#E5E7EB"/>
<path d="M36 39 L58 34 L48 54 L62 62 M36 39 L48 54" fill="none" stroke="#22D3EE" stroke-width="3" stroke-linecap="round"/>
<path d="M18 34 H24 M18 48 H24 M18 62 H24 M72 34 H78 M72 48 H78 M72 62 H78 M34 18 V24 M48 18 V24 M62 18 V24 M34 72 V78 M48 72 V78 M62 72 V78" stroke="#E5E7EB" stroke-width="3" stroke-linecap="round"/>

</g>
</svg>