<svg xmlns="http://www.w3.org/2000/svg" width="96" height="96" viewBox="0 0 96 96">

    <defs>
      <linearGradient id="bg" x1="0" y1="0" x2="1" y2="1">
        <stop offset="0" stop-color="#1F2937"/>
        <stop offset="1" stop-color="#0B1220"/>
      </linearGradient>
      <filter id="glow" x="-50%" y="-50%" width="200%" height="200%">
        <feGaussianBlur stdDeviation="1.4" result="b"/>
        <feMerge><feMergeNode in="b"/><feMergeNode in="SourceGraphic"/></feMerge>
      </filter>
    </defs>
<rect x="4" y="4" width="88" height="88" rx="20" fill="url(#bg)" stroke="#22D3EE" stroke-width="2" opacity="0.98"/><rect x="10" y="10" width="76" height="76" rx="16" fill="none" stroke="#22D3EE" stroke-width="1" opacity=".23"/>
<g filter="url(#glow)">
<rect x="25" y="25" width="46" height="46" rx="8" fill="none" stroke="#22D3EE" stroke-width="5" opacity="1"/>
<line x1="16" y1="33" x2="25" y2="33" stroke="#EAF6FF" stroke-width="3" stroke-linecap="round"/>
<line x1="71" y1="33" x2="80" y2="33" stroke="#EAF6FF" stroke-width="3" stroke-linecap="round"/>
<line x1="33" y1="16" x2="33" y2="25" stroke="#EAF6FF" stroke-width="3" stroke-linecap="round"/>
<line x1="33" y1="71" x2="33" y2="80" stroke="#EAF6FF" stroke-width="3" stroke-linecap="round"/>
<line x1="16" y1="48" x2="25" y2="48" stroke="#EAF6FF" stroke-width="3" stroke-linecap="round"/>
<line x1="71" y1="48" x2="80" y2="48" stroke="#EAF6FF" stroke-width="3" stroke-linecap="round"/>
<line x1="48" y1="16" x2="48" y2="25" stroke="#EAF6FF" stroke-width="3" stroke-linecap="round"/>
<line x1="48" y1="71" x2="48" y2="80" stroke="#EAF6FF" stroke-width="3" stroke-linecap="round"/>
<line x1="16" y1="63" x2="25" y2="63" stroke="#EAF6FF" stroke-width="3" stroke-linecap="round"/>
<line x1="71" y1="63" x2="80" y2="63" stroke="#EAF6FF" stroke-width="3" stroke-linecap="round"/>
<line x1="63" y1="16" x2="63" y2="25" stroke="#EAF6FF" stroke-width="3" stroke-linecap="round"/>
<line x1="63" y1="71" x2="63" y2="80" stroke="#EAF6FF" stroke-width="3" stroke-linecap="round"/>
<circle cx="48" cy="48" r="8" fill="none" stroke="#EAF6FF" stroke-width="4" opacity="1"/>
<rect x="25" y="22" width="46" height="52" rx="6" fill="none" stroke="#EAF6FF" stroke-width="5" opacity="1"/>
<line x1="33" y1="34" x2="63" y2="34" stroke="#22D3EE" stroke-width="4" stroke-linecap="round"/>
<line x1="33" y1="48" x2="63" y2="48" stroke="#22D3EE" stroke-width="4" stroke-linecap="round"/>
<line x1="33" y1="62" x2="54" y2="62" stroke="#22D3EE" stroke-width="4" stroke-linecap="round"/>
</g>
</svg>